<?xml version="1.0" encoding="UTF-8" standalone="no"?>
<!DOCTYPE svg PUBLIC "-//W3C//DTD SVG 1.1//EN"
 "http://www.w3.org/Graphics/SVG/1.1/DTD/svg11.dtd">
<!-- Generated by graphviz version 2.43.0 (0)
 -->
<!-- Title: oscillation Pages: 1 -->
<svg width="584pt" height="478pt"
 viewBox="0.00 0.00 584.00 478.00" xmlns="http://www.w3.org/2000/svg" xmlns:xlink="http://www.w3.org/1999/xlink">
<g id="graph0" class="graph" transform="scale(1 1) rotate(0) translate(4 474)">
<title>oscillation</title>
<g id="clust1" class="cluster">
<title>cluster_obs</title>
<path fill="transparent" stroke="#999999" stroke-dasharray="5,2" d="M54,-336C54,-336 299,-336 299,-336 305,-336 311,-342 311,-348 311,-348 311,-395 311,-395 311,-401 305,-407 299,-407 299,-407 54,-407 54,-407 48,-407 42,-401 42,-395 42,-395 42,-348 42,-348 42,-342 48,-336 54,-336"/>
<text text-anchor="middle" x="85" y="-395" font-family="Helvetica,Arial,sans-serif" font-size="10.00">OBSERVATION</text>
</g>
<g id="clust2" class="cluster">
<title>cluster_gate</title>
<path fill="transparent" stroke="#999999" stroke-dasharray="5,2" d="M165,-164C165,-164 543,-164 543,-164 549,-164 555,-170 555,-176 555,-176 555,-296 555,-296 555,-302 549,-308 543,-308 543,-308 165,-308 165,-308 159,-308 153,-302 153,-296 153,-296 153,-176 153,-176 153,-170 159,-164 165,-164"/>
<text text-anchor="middle" x="180" y="-296" font-family="Helvetica,Arial,sans-serif" font-size="10.00">GATING</text>
</g>
<g id="clust3" class="cluster">
<title>cluster_mit</title>
<path fill="transparent" stroke="#999999" stroke-dasharray="5,2" d="M20,-65C20,-65 556,-65 556,-65 562,-65 568,-71 568,-77 568,-77 568,-124 568,-124 568,-130 562,-136 556,-136 556,-136 20,-136 20,-136 14,-136 8,-130 8,-124 8,-124 8,-77 8,-77 8,-71 14,-65 20,-65"/>
<text text-anchor="middle" x="45.5" y="-124" font-family="Helvetica,Arial,sans-serif" font-size="10.00">MITIGATION</text>
</g>
<!-- omega -->
<g id="node1" class="node">
<title>omega</title>
<polygon fill="#eeeeee" stroke="black" points="168,-470 6,-470 6,-434 168,-434 168,-470"/>
<text text-anchor="middle" x="87" y="-455.2" font-family="Helvetica,Arial,sans-serif" font-size="11.00">measured rate ω</text>
<text text-anchor="middle" x="87" y="-443.2" font-family="Helvetica,Arial,sans-serif" font-size="11.00">(root part, carries wobble)</text>
</g>
<!-- chatter -->
<g id="node4" class="node">
<title>chatter</title>
<path fill="none" stroke="black" d="M101.5,-380C101.5,-380 62.5,-380 62.5,-380 56.5,-380 50.5,-374 50.5,-368 50.5,-368 50.5,-356 50.5,-356 50.5,-350 56.5,-344 62.5,-344 62.5,-344 101.5,-344 101.5,-344 107.5,-344 113.5,-350 113.5,-356 113.5,-356 113.5,-368 113.5,-368 113.5,-374 107.5,-380 101.5,-380"/>
<text text-anchor="middle" x="82" y="-365.2" font-family="Helvetica,Arial,sans-serif" font-size="11.00">chatter</text>
<text text-anchor="middle" x="82" y="-353.2" font-family="Helvetica,Arial,sans-serif" font-size="11.00">detector</text>
</g>
<!-- omega&#45;&gt;chatter -->
<g id="edge3" class="edge">
<title>omega&#45;&gt;chatter</title>
<path fill="none" stroke="#555555" d="M86.01,-433.61C85.31,-421.24 84.35,-404.37 83.55,-390.22"/>
<polygon fill="#555555" stroke="#555555" points="87.03,-389.84 82.97,-380.05 80.04,-390.23 87.03,-389.84"/>
</g>
<!-- freq -->
<g id="node5" class="node">
<title>freq</title>
<path fill="none" stroke="black" d="M190.5,-380C190.5,-380 143.5,-380 143.5,-380 137.5,-380 131.5,-374 131.5,-368 131.5,-368 131.5,-356 131.5,-356 131.5,-350 137.5,-344 143.5,-344 143.5,-344 190.5,-344 190.5,-344 196.5,-344 202.5,-350 202.5,-356 202.5,-356 202.5,-368 202.5,-368 202.5,-374 196.5,-380 190.5,-380"/>
<text text-anchor="middle" x="167" y="-365.2" font-family="Helvetica,Arial,sans-serif" font-size="11.00">frequency</text>
<text text-anchor="middle" x="167" y="-353.2" font-family="Helvetica,Arial,sans-serif" font-size="11.00">estimator</text>
</g>
<!-- omega&#45;&gt;freq -->
<g id="edge4" class="edge">
<title>omega&#45;&gt;freq</title>
<path fill="none" stroke="#555555" d="M102.81,-433.61C114.72,-420.51 131.21,-402.37 144.5,-387.75"/>
<polygon fill="#555555" stroke="#555555" points="147.36,-389.8 151.5,-380.05 142.18,-385.1 147.36,-389.8"/>
</g>
<!-- uout -->
<g id="node2" class="node">
<title>uout</title>
<polygon fill="#eeeeee" stroke="black" points="336.5,-470 187.5,-470 187.5,-434 336.5,-434 336.5,-470"/>
<text text-anchor="middle" x="262" y="-449.2" font-family="Helvetica,Arial,sans-serif" font-size="11.00">delivered control output</text>
</g>
<!-- envel -->
<g id="node6" class="node">
<title>envel</title>
<path fill="none" stroke="black" d="M291,-380C291,-380 233,-380 233,-380 227,-380 221,-374 221,-368 221,-368 221,-356 221,-356 221,-350 227,-344 233,-344 233,-344 291,-344 291,-344 297,-344 303,-350 303,-356 303,-356 303,-368 303,-368 303,-374 297,-380 291,-380"/>
<text text-anchor="middle" x="262" y="-365.2" font-family="Helvetica,Arial,sans-serif" font-size="11.00">control&#45;osc.</text>
<text text-anchor="middle" x="262" y="-353.2" font-family="Helvetica,Arial,sans-serif" font-size="11.00">envelope</text>
</g>
<!-- uout&#45;&gt;envel -->
<g id="edge5" class="edge">
<title>uout&#45;&gt;envel</title>
<path fill="none" stroke="#555555" d="M262,-433.61C262,-421.24 262,-404.37 262,-390.22"/>
<polygon fill="#555555" stroke="#555555" points="265.5,-390.05 262,-380.05 258.5,-390.05 265.5,-390.05"/>
</g>
<!-- theta -->
<g id="node3" class="node">
<title>theta</title>
<polygon fill="#eeeeee" stroke="black" points="560,-380 458,-380 458,-344 560,-344 560,-380"/>
<text text-anchor="middle" x="509" y="-359.2" font-family="Helvetica,Arial,sans-serif" font-size="11.00">pointing error θ</text>
</g>
<!-- hold -->
<g id="node7" class="node">
<title>hold</title>
<path fill="#dce8f5" stroke="#4a6f9c" d="M535,-281C535,-281 483,-281 483,-281 477,-281 471,-275 471,-269 471,-269 471,-257 471,-257 471,-251 477,-245 483,-245 483,-245 535,-245 535,-245 541,-245 547,-251 547,-257 547,-257 547,-269 547,-269 547,-275 541,-281 535,-281"/>
<text text-anchor="middle" x="509" y="-266.2" font-family="Helvetica,Arial,sans-serif" font-size="11.00">hold factor</text>
<text text-anchor="middle" x="509" y="-254.2" font-family="Helvetica,Arial,sans-serif" font-size="11.00">= f(θ)</text>
</g>
<!-- theta&#45;&gt;hold -->
<g id="edge9" class="edge">
<title>theta&#45;&gt;hold</title>
<path fill="none" stroke="#555555" d="M509,-343.66C509,-329.18 509,-308.26 509,-291.5"/>
<polygon fill="#555555" stroke="#555555" points="512.5,-291.19 509,-281.19 505.5,-291.19 512.5,-291.19"/>
</g>
<!-- level -->
<g id="node9" class="node">
<title>level</title>
<path fill="#dce8f5" stroke="#4a6f9c" d="M310.5,-208C310.5,-208 173.5,-208 173.5,-208 167.5,-208 161.5,-202 161.5,-196 161.5,-196 161.5,-184 161.5,-184 161.5,-178 167.5,-172 173.5,-172 173.5,-172 310.5,-172 310.5,-172 316.5,-172 322.5,-178 322.5,-184 322.5,-184 322.5,-196 322.5,-196 322.5,-202 316.5,-208 310.5,-208"/>
<text text-anchor="middle" x="242" y="-193.2" font-family="Helvetica,Arial,sans-serif" font-size="11.00">level = ramp ·</text>
<text text-anchor="middle" x="242" y="-181.2" font-family="Helvetica,Arial,sans-serif" font-size="11.00">max(hold factor, back&#45;off)</text>
</g>
<!-- chatter&#45;&gt;level -->
<g id="edge6" class="edge">
<title>chatter&#45;&gt;level</title>
<path fill="none" stroke="#555555" d="M78,-343.63C73.4,-319 69.05,-273.73 91,-245 105.93,-225.46 128.53,-212.97 151.74,-205"/>
<polygon fill="#555555" stroke="#555555" points="152.87,-208.31 161.35,-201.96 150.76,-201.64 152.87,-208.31"/>
<text text-anchor="middle" x="121.5" y="-260.8" font-family="Helvetica,Arial,sans-serif" font-size="9.00">latch → ramp</text>
</g>
<!-- tool -->
<g id="node10" class="node">
<title>tool</title>
<path fill="#dce8f5" stroke="#4a6f9c" d="M441,-281C441,-281 331,-281 331,-281 325,-281 319,-275 319,-269 319,-269 319,-257 319,-257 319,-251 325,-245 331,-245 331,-245 441,-245 441,-245 447,-245 453,-251 453,-257 453,-257 453,-269 453,-269 453,-275 447,-281 441,-281"/>
<text text-anchor="middle" x="386" y="-266.2" font-family="Helvetica,Arial,sans-serif" font-size="11.00">tool = notch /</text>
<text text-anchor="middle" x="386" y="-254.2" font-family="Helvetica,Arial,sans-serif" font-size="11.00">low&#45;pass / broadband</text>
</g>
<!-- freq&#45;&gt;tool -->
<g id="edge7" class="edge">
<title>freq&#45;&gt;tool</title>
<path fill="none" stroke="#555555" d="M193.84,-343.9C199.64,-340.83 205.88,-337.98 212,-336 247.34,-324.54 260.21,-339.05 295,-326 318.53,-317.17 341.9,-301.05 359.06,-287.47"/>
<polygon fill="#555555" stroke="#555555" points="361.41,-290.07 366.96,-281.04 356.99,-284.64 361.41,-290.07"/>
<text text-anchor="middle" x="316" y="-318.8" font-family="Helvetica,Arial,sans-serif" font-size="9.00">f</text>
</g>
<!-- backoff -->
<g id="node8" class="node">
<title>backoff</title>
<path fill="#dce8f5" stroke="#4a6f9c" d="M289,-281C289,-281 173,-281 173,-281 167,-281 161,-275 161,-269 161,-269 161,-257 161,-257 161,-251 167,-245 173,-245 173,-245 289,-245 289,-245 295,-245 301,-251 301,-257 301,-257 301,-269 301,-269 301,-275 295,-281 289,-281"/>
<text text-anchor="middle" x="231" y="-266.2" font-family="Helvetica,Arial,sans-serif" font-size="11.00">back&#45;off = f(envelope)</text>
<text text-anchor="middle" x="231" y="-254.2" font-family="Helvetica,Arial,sans-serif" font-size="11.00">[latched axes only]</text>
</g>
<!-- envel&#45;&gt;backoff -->
<g id="edge8" class="edge">
<title>envel&#45;&gt;backoff</title>
<path fill="none" stroke="#555555" d="M256.46,-343.66C251.79,-329.04 245.02,-307.86 239.64,-291.02"/>
<polygon fill="#555555" stroke="#555555" points="242.87,-289.65 236.49,-281.19 236.2,-291.78 242.87,-289.65"/>
<text text-anchor="middle" x="270.5" y="-318.8" font-family="Helvetica,Arial,sans-serif" font-size="9.00">envelope</text>
</g>
<!-- hold&#45;&gt;level -->
<g id="edge1" class="edge">
<title>hold&#45;&gt;level</title>
<path fill="none" stroke="#555555" d="M470.89,-247.83C467.9,-246.84 464.91,-245.88 462,-245 418.97,-231.98 370.49,-219.82 330.02,-210.34"/>
<polygon fill="#555555" stroke="#555555" points="330.71,-206.91 320.18,-208.06 329.13,-213.73 330.71,-206.91"/>
</g>
<!-- backoff&#45;&gt;level -->
<g id="edge2" class="edge">
<title>backoff&#45;&gt;level</title>
<path fill="none" stroke="#555555" d="M233.66,-244.81C234.91,-236.79 236.42,-227.05 237.81,-218.07"/>
<polygon fill="#555555" stroke="#555555" points="241.29,-218.45 239.36,-208.03 234.37,-217.38 241.29,-218.45"/>
</g>
<!-- bw -->
<g id="node12" class="node">
<title>bw</title>
<path fill="none" stroke="black" d="M114,-109C114,-109 28,-109 28,-109 22,-109 16,-103 16,-97 16,-97 16,-85 16,-85 16,-79 22,-73 28,-73 28,-73 114,-73 114,-73 120,-73 126,-79 126,-85 126,-85 126,-97 126,-97 126,-103 120,-109 114,-109"/>
<text text-anchor="middle" x="71" y="-94.2" font-family="Helvetica,Arial,sans-serif" font-size="11.00">bandwidth floor</text>
<text text-anchor="middle" x="71" y="-82.2" font-family="Helvetica,Arial,sans-serif" font-size="11.00">→ inner&#45;loop gain</text>
</g>
<!-- level&#45;&gt;bw -->
<g id="edge11" class="edge">
<title>level&#45;&gt;bw</title>
<path fill="none" stroke="#555555" d="M204.58,-171.77C183.99,-161.93 158.2,-148.99 136,-136 124.97,-129.55 113.31,-121.92 102.95,-114.85"/>
<polygon fill="#555555" stroke="#555555" points="104.81,-111.88 94.59,-109.07 100.83,-117.64 104.81,-111.88"/>
<text text-anchor="middle" x="177.5" y="-146.8" font-family="Helvetica,Arial,sans-serif" font-size="9.00">level</text>
</g>
<!-- ffcut -->
<g id="node13" class="node">
<title>ffcut</title>
<path fill="none" stroke="black" d="M263.5,-109C263.5,-109 156.5,-109 156.5,-109 150.5,-109 144.5,-103 144.5,-97 144.5,-97 144.5,-85 144.5,-85 144.5,-79 150.5,-73 156.5,-73 156.5,-73 263.5,-73 263.5,-73 269.5,-73 275.5,-79 275.5,-85 275.5,-85 275.5,-97 275.5,-97 275.5,-103 269.5,-109 263.5,-109"/>
<text text-anchor="middle" x="210" y="-94.2" font-family="Helvetica,Arial,sans-serif" font-size="11.00">feedforward cut</text>
<text text-anchor="middle" x="210" y="-82.2" font-family="Helvetica,Arial,sans-serif" font-size="11.00">→ accel. feedforward</text>
</g>
<!-- level&#45;&gt;ffcut -->
<g id="edge12" class="edge">
<title>level&#45;&gt;ffcut</title>
<path fill="none" stroke="#555555" d="M236.28,-171.66C231.46,-157.04 224.47,-135.86 218.91,-119.02"/>
<polygon fill="#555555" stroke="#555555" points="222.13,-117.59 215.67,-109.19 215.48,-119.78 222.13,-117.59"/>
<text text-anchor="middle" x="266" y="-146.8" font-family="Helvetica,Arial,sans-serif" font-size="9.00">level (hold gate)</text>
</g>
<!-- outf -->
<g id="node14" class="node">
<title>outf</title>
<path fill="none" stroke="black" d="M420,-109C420,-109 306,-109 306,-109 300,-109 294,-103 294,-97 294,-97 294,-85 294,-85 294,-79 300,-73 306,-73 306,-73 420,-73 420,-73 426,-73 432,-79 432,-85 432,-85 432,-97 432,-97 432,-103 426,-109 420,-109"/>
<text text-anchor="middle" x="363" y="-94.2" font-family="Helvetica,Arial,sans-serif" font-size="11.00">output filter</text>
<text text-anchor="middle" x="363" y="-82.2" font-family="Helvetica,Arial,sans-serif" font-size="11.00">→ delivered command</text>
</g>
<!-- level&#45;&gt;outf -->
<g id="edge13" class="edge">
<title>level&#45;&gt;outf</title>
<path fill="none" stroke="#555555" d="M279.13,-171.83C288.62,-166.7 298.53,-160.64 307,-154 320.54,-143.38 333.55,-129.29 343.63,-117.23"/>
<polygon fill="#555555" stroke="#555555" points="346.51,-119.23 350.1,-109.27 341.07,-114.82 346.51,-119.23"/>
<text text-anchor="middle" x="341.5" y="-146.8" font-family="Helvetica,Arial,sans-serif" font-size="9.00">latch, level</text>
</g>
<!-- rate -->
<g id="node11" class="node">
<title>rate</title>
<path fill="none" stroke="black" d="M548,-109C548,-109 462,-109 462,-109 456,-109 450,-103 450,-97 450,-97 450,-85 450,-85 450,-79 456,-73 462,-73 462,-73 548,-73 548,-73 554,-73 560,-79 560,-85 560,-85 560,-97 560,-97 560,-103 554,-109 548,-109"/>
<text text-anchor="middle" x="505" y="-94.2" font-family="Helvetica,Arial,sans-serif" font-size="11.00">rate filter</text>
<text text-anchor="middle" x="505" y="-82.2" font-family="Helvetica,Arial,sans-serif" font-size="11.00">→ measured rate</text>
</g>
<!-- tool&#45;&gt;rate -->
<g id="edge10" class="edge">
<title>tool&#45;&gt;rate</title>
<path fill="none" stroke="#555555" d="M398.07,-244.76C419.15,-214.65 462.77,-152.33 487.28,-117.31"/>
<polygon fill="#555555" stroke="#555555" points="490.21,-119.23 493.08,-109.03 484.48,-115.21 490.21,-119.23"/>
<text text-anchor="middle" x="481.5" y="-187.8" font-family="Helvetica,Arial,sans-serif" font-size="9.00">tool, f, latch</text>
</g>
<!-- loop -->
<g id="node15" class="node">
<title>loop</title>
<polygon fill="#eeeeee" stroke="black" points="392,-36 180,-36 180,0 392,0 392,-36"/>
<text text-anchor="middle" x="286" y="-15.2" font-family="Helvetica,Arial,sans-serif" font-size="11.00">control loop &#160;— &#160;actuates in [−1, 1]</text>
</g>
<!-- rate&#45;&gt;loop -->
<g id="edge14" class="edge">
<title>rate&#45;&gt;loop</title>
<path fill="none" stroke="#555555" d="M462.84,-72.95C455.59,-70.19 448.11,-67.44 441,-65 414.04,-55.75 384.09,-46.61 357.75,-38.93"/>
<polygon fill="#555555" stroke="#555555" points="358.43,-35.49 347.85,-36.07 356.48,-42.21 358.43,-35.49"/>
</g>
<!-- bw&#45;&gt;loop -->
<g id="edge15" class="edge">
<title>bw&#45;&gt;loop</title>
<path fill="none" stroke="#555555" d="M114.2,-72.9C121.45,-70.17 128.91,-67.45 136,-65 162.37,-55.9 191.65,-46.72 217.29,-38.98"/>
<polygon fill="#555555" stroke="#555555" points="218.35,-42.31 226.92,-36.08 216.34,-35.61 218.35,-42.31"/>
</g>
<!-- ffcut&#45;&gt;loop -->
<g id="edge16" class="edge">
<title>ffcut&#45;&gt;loop</title>
<path fill="none" stroke="#555555" d="M228.4,-72.81C238.01,-63.83 249.93,-52.69 260.43,-42.89"/>
<polygon fill="#555555" stroke="#555555" points="262.85,-45.41 267.77,-36.03 258.08,-40.3 262.85,-45.41"/>
</g>
<!-- outf&#45;&gt;loop -->
<g id="edge17" class="edge">
<title>outf&#45;&gt;loop</title>
<path fill="none" stroke="#555555" d="M344.36,-72.81C334.62,-63.83 322.54,-52.69 311.9,-42.89"/>
<polygon fill="#555555" stroke="#555555" points="314.19,-40.23 304.47,-36.03 309.45,-45.38 314.19,-40.23"/>
</g>
</g>
</svg>
