<?xml version="1.0" encoding="UTF-8" standalone="no"?>
<!DOCTYPE svg PUBLIC "-//W3C//DTD SVG 1.1//EN"
 "http://www.w3.org/Graphics/SVG/1.1/DTD/svg11.dtd">
<!-- Generated by graphviz version 2.43.0 (0)
 -->
<!-- Title: oscillation Pages: 1 -->
<svg width="541pt" height="478pt"
 viewBox="0.00 0.00 541.00 478.00" xmlns="http://www.w3.org/2000/svg" xmlns:xlink="http://www.w3.org/1999/xlink">
<g id="graph0" class="graph" transform="scale(1 1) rotate(0) translate(4 474)">
<title>oscillation</title>
<g id="clust1" class="cluster">
<title>cluster_obs</title>
<path fill="transparent" stroke="#999999" stroke-dasharray="5,2" d="M61,-336C61,-336 281,-336 281,-336 287,-336 293,-342 293,-348 293,-348 293,-395 293,-395 293,-401 287,-407 281,-407 281,-407 61,-407 61,-407 55,-407 49,-401 49,-395 49,-395 49,-348 49,-348 49,-342 55,-336 61,-336"/>
<text text-anchor="middle" x="92.5" y="-395" font-family="Helvetica,Arial,sans-serif" font-size="10.00">OBSERVATION</text>
</g>
<g id="clust2" class="cluster">
<title>cluster_gate</title>
<path fill="transparent" stroke="#999999" stroke-dasharray="5,2" d="M162,-164C162,-164 500,-164 500,-164 506,-164 512,-170 512,-176 512,-176 512,-296 512,-296 512,-302 506,-308 500,-308 500,-308 162,-308 162,-308 156,-308 150,-302 150,-296 150,-296 150,-176 150,-176 150,-170 156,-164 162,-164"/>
<text text-anchor="middle" x="177" y="-296" font-family="Helvetica,Arial,sans-serif" font-size="10.00">GATING</text>
</g>
<g id="clust3" class="cluster">
<title>cluster_mit</title>
<path fill="transparent" stroke="#999999" stroke-dasharray="5,2" d="M20,-65C20,-65 513,-65 513,-65 519,-65 525,-71 525,-77 525,-77 525,-124 525,-124 525,-130 519,-136 513,-136 513,-136 20,-136 20,-136 14,-136 8,-130 8,-124 8,-124 8,-77 8,-77 8,-71 14,-65 20,-65"/>
<text text-anchor="middle" x="45" y="-124" font-family="Helvetica,Arial,sans-serif" font-size="10.00">MITIGATION</text>
</g>
<!-- omega -->
<g id="node1" class="node">
<title>omega</title>
<polygon fill="#eeeeee" stroke="black" points="164,-470 24,-470 24,-434 164,-434 164,-470"/>
<text text-anchor="middle" x="94" y="-455.2" font-family="Helvetica,Arial,sans-serif" font-size="11.00">measured rate ω</text>
<text text-anchor="middle" x="94" y="-443.2" font-family="Helvetica,Arial,sans-serif" font-size="11.00">(root part, carries wobble)</text>
</g>
<!-- chatter -->
<g id="node4" class="node">
<title>chatter</title>
<path fill="none" stroke="black" d="M101,-380C101,-380 69,-380 69,-380 63,-380 57,-374 57,-368 57,-368 57,-356 57,-356 57,-350 63,-344 69,-344 69,-344 101,-344 101,-344 107,-344 113,-350 113,-356 113,-356 113,-368 113,-368 113,-374 107,-380 101,-380"/>
<text text-anchor="middle" x="85" y="-365.2" font-family="Helvetica,Arial,sans-serif" font-size="11.00">chatter</text>
<text text-anchor="middle" x="85" y="-353.2" font-family="Helvetica,Arial,sans-serif" font-size="11.00">detector</text>
</g>
<!-- omega&#45;&gt;chatter -->
<g id="edge3" class="edge">
<title>omega&#45;&gt;chatter</title>
<path fill="none" stroke="#555555" d="M92.22,-433.61C90.96,-421.24 89.23,-404.37 87.78,-390.22"/>
<polygon fill="#555555" stroke="#555555" points="91.24,-389.64 86.74,-380.05 84.28,-390.35 91.24,-389.64"/>
</g>
<!-- freq -->
<g id="node5" class="node">
<title>freq</title>
<path fill="none" stroke="black" d="M183,-380C183,-380 143,-380 143,-380 137,-380 131,-374 131,-368 131,-368 131,-356 131,-356 131,-350 137,-344 143,-344 143,-344 183,-344 183,-344 189,-344 195,-350 195,-356 195,-356 195,-368 195,-368 195,-374 189,-380 183,-380"/>
<text text-anchor="middle" x="163" y="-365.2" font-family="Helvetica,Arial,sans-serif" font-size="11.00">frequency</text>
<text text-anchor="middle" x="163" y="-353.2" font-family="Helvetica,Arial,sans-serif" font-size="11.00">estimator</text>
</g>
<!-- omega&#45;&gt;freq -->
<g id="edge4" class="edge">
<title>omega&#45;&gt;freq</title>
<path fill="none" stroke="#555555" d="M107.63,-433.61C117.81,-420.63 131.87,-402.7 143.27,-388.16"/>
<polygon fill="#555555" stroke="#555555" points="146.21,-390.08 149.63,-380.05 140.71,-385.76 146.21,-390.08"/>
</g>
<!-- uout -->
<g id="node2" class="node">
<title>uout</title>
<polygon fill="#eeeeee" stroke="black" points="313,-470 185,-470 185,-434 313,-434 313,-470"/>
<text text-anchor="middle" x="249" y="-449.2" font-family="Helvetica,Arial,sans-serif" font-size="11.00">delivered control output</text>
</g>
<!-- envel -->
<g id="node6" class="node">
<title>envel</title>
<path fill="none" stroke="black" d="M273,-380C273,-380 225,-380 225,-380 219,-380 213,-374 213,-368 213,-368 213,-356 213,-356 213,-350 219,-344 225,-344 225,-344 273,-344 273,-344 279,-344 285,-350 285,-356 285,-356 285,-368 285,-368 285,-374 279,-380 273,-380"/>
<text text-anchor="middle" x="249" y="-365.2" font-family="Helvetica,Arial,sans-serif" font-size="11.00">control&#45;osc.</text>
<text text-anchor="middle" x="249" y="-353.2" font-family="Helvetica,Arial,sans-serif" font-size="11.00">envelope</text>
</g>
<!-- uout&#45;&gt;envel -->
<g id="edge5" class="edge">
<title>uout&#45;&gt;envel</title>
<path fill="none" stroke="#555555" d="M249,-433.61C249,-421.24 249,-404.37 249,-390.22"/>
<polygon fill="#555555" stroke="#555555" points="252.5,-390.05 249,-380.05 245.5,-390.05 252.5,-390.05"/>
</g>
<!-- theta -->
<g id="node3" class="node">
<title>theta</title>
<polygon fill="#eeeeee" stroke="black" points="514.5,-380 425.5,-380 425.5,-344 514.5,-344 514.5,-380"/>
<text text-anchor="middle" x="470" y="-359.2" font-family="Helvetica,Arial,sans-serif" font-size="11.00">pointing error θ</text>
</g>
<!-- hold -->
<g id="node7" class="node">
<title>hold</title>
<path fill="#dce8f5" stroke="#4a6f9c" d="M491.5,-281C491.5,-281 448.5,-281 448.5,-281 442.5,-281 436.5,-275 436.5,-269 436.5,-269 436.5,-257 436.5,-257 436.5,-251 442.5,-245 448.5,-245 448.5,-245 491.5,-245 491.5,-245 497.5,-245 503.5,-251 503.5,-257 503.5,-257 503.5,-269 503.5,-269 503.5,-275 497.5,-281 491.5,-281"/>
<text text-anchor="middle" x="470" y="-266.2" font-family="Helvetica,Arial,sans-serif" font-size="11.00">hold factor</text>
<text text-anchor="middle" x="470" y="-254.2" font-family="Helvetica,Arial,sans-serif" font-size="11.00">= f(θ)</text>
</g>
<!-- theta&#45;&gt;hold -->
<g id="edge9" class="edge">
<title>theta&#45;&gt;hold</title>
<path fill="none" stroke="#555555" d="M470,-343.66C470,-329.18 470,-308.26 470,-291.5"/>
<polygon fill="#555555" stroke="#555555" points="473.5,-291.19 470,-281.19 466.5,-291.19 473.5,-291.19"/>
</g>
<!-- level -->
<g id="node9" class="node">
<title>level</title>
<path fill="#dce8f5" stroke="#4a6f9c" d="M284,-208C284,-208 170,-208 170,-208 164,-208 158,-202 158,-196 158,-196 158,-184 158,-184 158,-178 164,-172 170,-172 170,-172 284,-172 284,-172 290,-172 296,-178 296,-184 296,-184 296,-196 296,-196 296,-202 290,-208 284,-208"/>
<text text-anchor="middle" x="227" y="-193.2" font-family="Helvetica,Arial,sans-serif" font-size="11.00">level = ramp ·</text>
<text text-anchor="middle" x="227" y="-181.2" font-family="Helvetica,Arial,sans-serif" font-size="11.00">max(hold factor, back&#45;off)</text>
</g>
<!-- chatter&#45;&gt;level -->
<g id="edge6" class="edge">
<title>chatter&#45;&gt;level</title>
<path fill="none" stroke="#555555" d="M81.16,-343.75C76.76,-319.27 72.66,-274.19 94,-245 107.2,-226.94 127.49,-214.91 148.28,-206.9"/>
<polygon fill="#555555" stroke="#555555" points="149.6,-210.14 157.85,-203.49 147.25,-203.55 149.6,-210.14"/>
<text text-anchor="middle" x="121.5" y="-260.8" font-family="Helvetica,Arial,sans-serif" font-size="9.00">latch → ramp</text>
</g>
<!-- tool -->
<g id="node10" class="node">
<title>tool</title>
<path fill="#dce8f5" stroke="#4a6f9c" d="M406,-281C406,-281 310,-281 310,-281 304,-281 298,-275 298,-269 298,-269 298,-257 298,-257 298,-251 304,-245 310,-245 310,-245 406,-245 406,-245 412,-245 418,-251 418,-257 418,-257 418,-269 418,-269 418,-275 412,-281 406,-281"/>
<text text-anchor="middle" x="358" y="-266.2" font-family="Helvetica,Arial,sans-serif" font-size="11.00">tool = notch /</text>
<text text-anchor="middle" x="358" y="-254.2" font-family="Helvetica,Arial,sans-serif" font-size="11.00">low&#45;pass / broadband</text>
</g>
<!-- freq&#45;&gt;tool -->
<g id="edge7" class="edge">
<title>freq&#45;&gt;tool</title>
<path fill="none" stroke="#555555" d="M187.32,-343.92C192.62,-340.85 198.34,-338 204,-336 236.13,-324.66 248.64,-339.31 280,-326 300.56,-317.28 320.22,-301.59 334.66,-288.17"/>
<polygon fill="#555555" stroke="#555555" points="337.32,-290.46 342.11,-281.01 332.48,-285.41 337.32,-290.46"/>
<text text-anchor="middle" x="297.5" y="-318.8" font-family="Helvetica,Arial,sans-serif" font-size="9.00">f</text>
</g>
<!-- backoff -->
<g id="node8" class="node">
<title>backoff</title>
<path fill="#dce8f5" stroke="#4a6f9c" d="M268,-281C268,-281 170,-281 170,-281 164,-281 158,-275 158,-269 158,-269 158,-257 158,-257 158,-251 164,-245 170,-245 170,-245 268,-245 268,-245 274,-245 280,-251 280,-257 280,-257 280,-269 280,-269 280,-275 274,-281 268,-281"/>
<text text-anchor="middle" x="219" y="-266.2" font-family="Helvetica,Arial,sans-serif" font-size="11.00">back&#45;off = f(envelope)</text>
<text text-anchor="middle" x="219" y="-254.2" font-family="Helvetica,Arial,sans-serif" font-size="11.00">[latched axes only]</text>
</g>
<!-- envel&#45;&gt;backoff -->
<g id="edge8" class="edge">
<title>envel&#45;&gt;backoff</title>
<path fill="none" stroke="#555555" d="M243.64,-343.66C239.11,-329.04 232.57,-307.86 227.36,-291.02"/>
<polygon fill="#555555" stroke="#555555" points="230.62,-289.71 224.32,-281.19 223.93,-291.78 230.62,-289.71"/>
<text text-anchor="middle" x="256.5" y="-318.8" font-family="Helvetica,Arial,sans-serif" font-size="9.00">envelope</text>
</g>
<!-- hold&#45;&gt;level -->
<g id="edge1" class="edge">
<title>hold&#45;&gt;level</title>
<path fill="none" stroke="#555555" d="M436.33,-248.27C433.19,-247.12 430.05,-246.01 427,-245 387.51,-231.91 342.88,-219.63 305.81,-210.09"/>
<polygon fill="#555555" stroke="#555555" points="306.62,-206.68 296.07,-207.6 304.89,-213.47 306.62,-206.68"/>
</g>
<!-- backoff&#45;&gt;level -->
<g id="edge2" class="edge">
<title>backoff&#45;&gt;level</title>
<path fill="none" stroke="#555555" d="M220.94,-244.81C221.84,-236.79 222.94,-227.05 223.95,-218.07"/>
<polygon fill="#555555" stroke="#555555" points="227.44,-218.36 225.08,-208.03 220.48,-217.57 227.44,-218.36"/>
</g>
<!-- bw -->
<g id="node12" class="node">
<title>bw</title>
<path fill="none" stroke="black" d="M105.5,-109C105.5,-109 28.5,-109 28.5,-109 22.5,-109 16.5,-103 16.5,-97 16.5,-97 16.5,-85 16.5,-85 16.5,-79 22.5,-73 28.5,-73 28.5,-73 105.5,-73 105.5,-73 111.5,-73 117.5,-79 117.5,-85 117.5,-85 117.5,-97 117.5,-97 117.5,-103 111.5,-109 105.5,-109"/>
<text text-anchor="middle" x="67" y="-94.2" font-family="Helvetica,Arial,sans-serif" font-size="11.00">bandwidth floor</text>
<text text-anchor="middle" x="67" y="-82.2" font-family="Helvetica,Arial,sans-serif" font-size="11.00">→ inner&#45;loop gain</text>
</g>
<!-- level&#45;&gt;bw -->
<g id="edge11" class="edge">
<title>level&#45;&gt;bw</title>
<path fill="none" stroke="#555555" d="M191.59,-171.82C172.14,-161.99 147.81,-149.05 127,-136 116.95,-129.7 106.38,-122.25 96.96,-115.29"/>
<polygon fill="#555555" stroke="#555555" points="98.79,-112.29 88.69,-109.09 94.59,-117.89 98.79,-112.29"/>
<text text-anchor="middle" x="165.5" y="-146.8" font-family="Helvetica,Arial,sans-serif" font-size="9.00">level</text>
</g>
<!-- ffcut -->
<g id="node13" class="node">
<title>ffcut</title>
<path fill="none" stroke="black" d="M242.5,-109C242.5,-109 147.5,-109 147.5,-109 141.5,-109 135.5,-103 135.5,-97 135.5,-97 135.5,-85 135.5,-85 135.5,-79 141.5,-73 147.5,-73 147.5,-73 242.5,-73 242.5,-73 248.5,-73 254.5,-79 254.5,-85 254.5,-85 254.5,-97 254.5,-97 254.5,-103 248.5,-109 242.5,-109"/>
<text text-anchor="middle" x="195" y="-94.2" font-family="Helvetica,Arial,sans-serif" font-size="11.00">feedforward cut</text>
<text text-anchor="middle" x="195" y="-82.2" font-family="Helvetica,Arial,sans-serif" font-size="11.00">→ accel. feedforward</text>
</g>
<!-- level&#45;&gt;ffcut -->
<g id="edge12" class="edge">
<title>level&#45;&gt;ffcut</title>
<path fill="none" stroke="#555555" d="M221.28,-171.66C216.46,-157.04 209.47,-135.86 203.91,-119.02"/>
<polygon fill="#555555" stroke="#555555" points="207.13,-117.59 200.67,-109.19 200.48,-119.78 207.13,-117.59"/>
<text text-anchor="middle" x="247" y="-146.8" font-family="Helvetica,Arial,sans-serif" font-size="9.00">level (hold gate)</text>
</g>
<!-- outf -->
<g id="node14" class="node">
<title>outf</title>
<path fill="none" stroke="black" d="M385.5,-109C385.5,-109 284.5,-109 284.5,-109 278.5,-109 272.5,-103 272.5,-97 272.5,-97 272.5,-85 272.5,-85 272.5,-79 278.5,-73 284.5,-73 284.5,-73 385.5,-73 385.5,-73 391.5,-73 397.5,-79 397.5,-85 397.5,-85 397.5,-97 397.5,-97 397.5,-103 391.5,-109 385.5,-109"/>
<text text-anchor="middle" x="335" y="-94.2" font-family="Helvetica,Arial,sans-serif" font-size="11.00">output filter</text>
<text text-anchor="middle" x="335" y="-82.2" font-family="Helvetica,Arial,sans-serif" font-size="11.00">→ delivered command</text>
</g>
<!-- level&#45;&gt;outf -->
<g id="edge13" class="edge">
<title>level&#45;&gt;outf</title>
<path fill="none" stroke="#555555" d="M259.06,-171.87C267.57,-166.66 276.47,-160.56 284,-154 296.35,-143.25 308.1,-129.3 317.21,-117.37"/>
<polygon fill="#555555" stroke="#555555" points="320.19,-119.22 323.34,-109.1 314.57,-115.05 320.19,-119.22"/>
<text text-anchor="middle" x="314.5" y="-146.8" font-family="Helvetica,Arial,sans-serif" font-size="9.00">latch, level</text>
</g>
<!-- rate -->
<g id="node11" class="node">
<title>rate</title>
<path fill="none" stroke="black" d="M504.5,-109C504.5,-109 427.5,-109 427.5,-109 421.5,-109 415.5,-103 415.5,-97 415.5,-97 415.5,-85 415.5,-85 415.5,-79 421.5,-73 427.5,-73 427.5,-73 504.5,-73 504.5,-73 510.5,-73 516.5,-79 516.5,-85 516.5,-85 516.5,-97 516.5,-97 516.5,-103 510.5,-109 504.5,-109"/>
<text text-anchor="middle" x="466" y="-94.2" font-family="Helvetica,Arial,sans-serif" font-size="11.00">rate filter</text>
<text text-anchor="middle" x="466" y="-82.2" font-family="Helvetica,Arial,sans-serif" font-size="11.00">→ measured rate</text>
</g>
<!-- tool&#45;&gt;rate -->
<g id="edge10" class="edge">
<title>tool&#45;&gt;rate</title>
<path fill="none" stroke="#555555" d="M368.95,-244.76C388,-214.78 427.34,-152.86 449.64,-117.75"/>
<polygon fill="#555555" stroke="#555555" points="452.77,-119.35 455.18,-109.03 446.87,-115.59 452.77,-119.35"/>
<text text-anchor="middle" x="443" y="-187.8" font-family="Helvetica,Arial,sans-serif" font-size="9.00">tool, f, latch</text>
</g>
<!-- loop -->
<g id="node15" class="node">
<title>loop</title>
<polygon fill="#eeeeee" stroke="black" points="355.5,-36 174.5,-36 174.5,0 355.5,0 355.5,-36"/>
<text text-anchor="middle" x="265" y="-15.2" font-family="Helvetica,Arial,sans-serif" font-size="11.00">control loop &#160;— &#160;actuates in [−1, 1]</text>
</g>
<!-- rate&#45;&gt;loop -->
<g id="edge14" class="edge">
<title>rate&#45;&gt;loop</title>
<path fill="none" stroke="#555555" d="M427.16,-72.97C420.47,-70.21 413.57,-67.45 407,-65 382.46,-55.85 355.16,-46.75 331.11,-39.09"/>
<polygon fill="#555555" stroke="#555555" points="331.96,-35.69 321.37,-36.01 329.85,-42.36 331.96,-35.69"/>
</g>
<!-- bw&#45;&gt;loop -->
<g id="edge15" class="edge">
<title>bw&#45;&gt;loop</title>
<path fill="none" stroke="#555555" d="M106.86,-72.92C113.55,-70.18 120.45,-67.45 127,-65 151.11,-55.97 177.91,-46.84 201.42,-39.12"/>
<polygon fill="#555555" stroke="#555555" points="202.52,-42.44 210.94,-36.01 200.35,-35.79 202.52,-42.44"/>
</g>
<!-- ffcut&#45;&gt;loop -->
<g id="edge16" class="edge">
<title>ffcut&#45;&gt;loop</title>
<path fill="none" stroke="#555555" d="M211.95,-72.81C220.72,-63.92 231.57,-52.91 241.17,-43.17"/>
<polygon fill="#555555" stroke="#555555" points="243.68,-45.61 248.21,-36.03 238.7,-40.69 243.68,-45.61"/>
</g>
<!-- outf&#45;&gt;loop -->
<g id="edge17" class="edge">
<title>outf&#45;&gt;loop</title>
<path fill="none" stroke="#555555" d="M318.05,-72.81C309.28,-63.92 298.43,-52.91 288.83,-43.17"/>
<polygon fill="#555555" stroke="#555555" points="291.3,-40.69 281.79,-36.03 286.32,-45.61 291.3,-40.69"/>
</g>
</g>
</svg>
